<?xml version="1.0" encoding="UTF-8" standalone="no"?>
<!-- Created with Inkscape (http://www.inkscape.org/) -->

<svg
   width="30"
   height="29.990032"
   id="svg2"
   version="1.1"
   inkscape:version="1.1.2 (0a00cf5339, 2022-02-04, custom)"
   inkscape:export-filename="test.png"
   inkscape:export-xdpi="100"
   inkscape:export-ydpi="100"
   sodipodi:docname="logo.svg"
   xmlns:inkscape="http://www.inkscape.org/namespaces/inkscape"
   xmlns:sodipodi="http://sodipodi.sourceforge.net/DTD/sodipodi-0.dtd"
   xmlns="http://www.w3.org/2000/svg"
   xmlns:svg="http://www.w3.org/2000/svg"
   xmlns:rdf="http://www.w3.org/1999/02/22-rdf-syntax-ns#"
   xmlns:cc="http://creativecommons.org/ns#"
   xmlns:dc="http://purl.org/dc/elements/1.1/">
  <defs
     id="defs4">
    <clipPath
       clipPathUnits="userSpaceOnUse"
       id="clipPath3861">
      <rect
         style="fill:none;stroke:#800000;stroke-width:0.313602;stroke-linecap:butt;stroke-linejoin:miter;stroke-miterlimit:0;stroke-dasharray:none;stroke-dashoffset:0;stroke-opacity:1"
         id="rect3863"
         width="77.660332"
         height="77.853149"
         x="310.03735"
         y="224.89983"
         rx="0.50646973"
         ry="0.50646973" />
    </clipPath>
  </defs>
  <sodipodi:namedview
     id="base"
     pagecolor="#ffffff"
     bordercolor="#666666"
     borderopacity="1.0"
     inkscape:pageopacity="1"
     inkscape:pageshadow="2"
     inkscape:zoom="5.7415178"
     inkscape:cx="14.543193"
     inkscape:cy="45.893788"
     inkscape:document-units="px"
     inkscape:current-layer="layer1"
     showgrid="false"
     inkscape:window-width="1542"
     inkscape:window-height="836"
     inkscape:window-x="884"
     inkscape:window-y="151"
     inkscape:window-maximized="0"
     inkscape:pagecheckerboard="0"
     fit-margin-top="0"
     fit-margin-left="0"
     fit-margin-right="0"
     fit-margin-bottom="0"
     showborder="true" />
  <metadata
     id="metadata7">
    <rdf:RDF>
      <cc:Work
         rdf:about="">
        <dc:format>image/svg+xml</dc:format>
        <dc:type
           rdf:resource="http://purl.org/dc/dcmitype/StillImage" />
      </cc:Work>
    </rdf:RDF>
  </metadata>
  <g
     inkscape:label="Layer 1"
     inkscape:groupmode="layer"
     id="layer1"
     transform="translate(-309.40455,-224.50644)">
    <rect
       style="fill:#ffffff;stroke:none;stroke-width:1.08"
       id="rect308"
       width="30"
       height="30"
       x="309.40454"
       y="224.50644" />
    <g
       id="g106"
       transform="matrix(0.38121346,0,0,0.38121346,191.45537,138.92156)">
      <text
         xml:space="preserve"
         style="font-style:normal;font-weight:normal;line-height:0%;font-family:'Bitstream Vera Sans';letter-spacing:0px;word-spacing:0px;fill:#000000;fill-opacity:1;stroke:none"
         x="313.37061"
         y="291.67529"
         id="text3050"><tspan
           sodipodi:role="line"
           id="tspan3052"
           x="313.37061"
           y="291.67529"
           style="font-size:11px;line-height:1.25"> </tspan></text>
      <path
         style="fill:#800000;stroke:#800000;stroke-width:0;stroke-linecap:butt;stroke-linejoin:miter;stroke-miterlimit:4;stroke-dasharray:none;stroke-opacity:1"
         d="m 387.4512,242.23695 c 0,0 0,-0.12316 -5.54206,-0.12316 -5.54206,0 -24.01557,2.33998 -24.75451,25.98608 -0.73894,23.6461 17.48826,25.3703 21.79875,25.24714 4.31049,-0.12316 8.74413,0 8.74413,0 l -0.12316,4.92627 c 0,0 -0.98525,1.10841 -8.37465,0.98526 -7.38941,-0.12316 -26.47871,-4.80311 -26.60187,-30.54288 -0.12316,-25.73977 23.52295,-32.63655 29.065,-32.39023 5.54205,0.24632 5.91152,0.36947 5.91152,0.36947 z"
         id="path3853"
         inkscape:connector-curvature="0"
         sodipodi:nodetypes="czzzcczzzcc" />
      <path
         style="fill:#800000;stroke:#800000;stroke-width:0.4;stroke-linecap:butt;stroke-linejoin:miter;stroke-miterlimit:4;stroke-dasharray:none;stroke-opacity:1"
         d="m 362.943,266.00621 c 0.224,-12.51095 9.42012,-17.08677 16.62616,-17.11879 7.20604,-0.032 8.00519,2.70944 8.00519,2.70944 l -0.24631,7.26625 c 0,0 -3.31403,-4.8874 -9.1136,-4.92627 -5.79957,-0.0389 -10.90531,5.75542 -10.8378,12.43884 0.0675,6.68342 4.37668,13.20715 9.85255,13.54724 5.47587,0.34009 10.34516,-5.4189 10.34516,-5.4189 l -0.12315,8.12835 c 0,0 -2.99852,2.97549 -9.48307,2.95576 -6.48455,-0.0197 -15.24913,-7.07097 -15.02513,-19.58192 z"
         id="path3855"
         inkscape:connector-curvature="0"
         sodipodi:nodetypes="zzcczzzcczz" />
      <path
         sodipodi:type="arc"
         style="fill:none;stroke:none"
         id="path3065"
         sodipodi:cx="377.86176"
         sodipodi:cy="266.76852"
         sodipodi:rx="2.8738046"
         sodipodi:ry="4.4413342"
         d="m 380.73556,266.76852 a 2.8738046,4.4413342 0 0 1 -2.87041,4.44134 2.8738046,4.4413342 0 0 1 -2.87719,-4.43084 2.8738046,4.4413342 0 0 1 2.86361,-4.4518 2.8738046,4.4413342 0 0 1 2.88396,4.42032"
         sodipodi:start="0"
         sodipodi:end="6.2784611"
         sodipodi:open="true"
         sodipodi:arc-type="arc" />
      <path
         style="fill:#800000;stroke:#800000;stroke-width:0.2;stroke-linecap:butt;stroke-linejoin:miter;stroke-miterlimit:4;stroke-dasharray:none;stroke-opacity:1"
         d="m 343.23792,268.22303 c -0.0259,-6.55971 2.48565,-13.87236 4.43365,-18.2272 1.94799,-4.35485 5.78836,-10.8378 10.83779,-15.76407 5.04943,-4.92627 11.45358,-9.9757 21.79875,-9.60623 10.34516,0.36947 7.26624,0.36947 7.26624,0.36947 l -0.12315,4.31049 c 0,0 0.87575,-0.27087 -6.89678,-0.24631 -7.77253,0.0246 -17.48827,5.17258 -22.29138,11.20726 -4.80311,6.03468 -10.93423,17.70247 -10.71464,26.72502 0.21959,9.02254 0.98526,17.73457 6.03469,24.75451 6.81828,9.47906 10.71464,11.33042 10.71464,11.33042 0,0 -6.76189,-0.17021 -7.26626,-0.12316 -3.33696,-2.9087 -7.50492,-8.85484 -9.48307,-13.05461 -1.97815,-4.19977 -4.28454,-15.11588 -4.31048,-21.67559 z"
         id="path3083"
         inkscape:connector-curvature="0"
         sodipodi:nodetypes="zzzscczzzscczz" />
      <path
         style="fill:none;stroke:#000000;stroke-width:1px;stroke-linecap:butt;stroke-linejoin:miter;stroke-opacity:1"
         d="m 336.32222,244.2135 40.92994,21.24874 h -0.17417 v 0"
         id="path3069"
         inkscape:connector-curvature="0" />
      <path
         style="fill:none;stroke:#000000;stroke-width:1px;stroke-linecap:butt;stroke-linejoin:miter;stroke-opacity:1"
         d="m 320.29858,259.54046 56.08273,7.83765 v 0"
         id="path3071"
         inkscape:connector-curvature="0" />
      <path
         style="fill:none;stroke:#000000;stroke-width:1px;stroke-linecap:butt;stroke-linejoin:miter;stroke-opacity:1"
         d="m 339.80562,274.34491 36.92403,-5.74761"
         id="path3073"
         inkscape:connector-curvature="0" />
      <path
         style="fill:#800000;stroke:#000000;stroke-width:0.4;stroke-linecap:butt;stroke-linejoin:miter;stroke-miterlimit:4;stroke-dasharray:none;stroke-opacity:1"
         d="m 336.67056,244.56184 -4.70259,0.34834 -13.75943,-6.44429 5.39927,-1.56753 -1.04502,-5.2251 13.75943,8.36016 z"
         id="path3075"
         inkscape:connector-curvature="0" />
      <path
         style="fill:#800000;stroke:#000000;stroke-width:0.4;stroke-linecap:butt;stroke-linejoin:miter;stroke-miterlimit:4;stroke-dasharray:none;stroke-opacity:1"
         d="m 322.56279,280.44086 h 11.32105 l 6.9668,-6.09595 -5.57344,-2.61255 -14.97862,0.34834 4.87676,3.83174 z"
         id="path3077"
         inkscape:connector-curvature="0" />
      <path
         style="fill:#800000;stroke:#000000;stroke-width:0.4;stroke-linecap:butt;stroke-linejoin:miter;stroke-miterlimit:4;stroke-dasharray:none;stroke-opacity:1"
         d="m 309.98559,262.06519 6.03468,-0.49263 4.67996,-2.09366 -2.83261,-3.81786 -8.2515,-3.32523 z"
         id="path3081"
         inkscape:connector-curvature="0" />
    </g>
  </g>
</svg>
